<svg width="52" height="36" viewBox="0 0 52 36" fill="none" xmlns="http://www.w3.org/2000/svg">
<g clip-path="url(#clip0_51_29955)">
<mask id="mask0_51_29955" style="mask-type:luminance" maskUnits="userSpaceOnUse" x="20" y="2" width="32" height="32">
<path d="M52 2H20V34H52V2Z" fill="white"/>
</mask>
<g mask="url(#mask0_51_29955)">
<path fillRule="evenodd" clipRule="evenodd" d="M36 2C44.8372 2 52 9.16282 52 18C52 26.8372 44.8372 34 36 34C27.1628 34 20 26.8372 20 18C20 9.16282 27.1628 2 36 2Z" fill="#F0B90B"/>
<path d="M28.7935 18.0002L28.8051 22.2309L32.4 24.3463V26.8232L26.7012 23.4809V16.763L28.7935 18.0002ZM28.7935 13.7694V16.2348L26.7 14.9963V12.5309L28.7935 11.2925L30.8974 12.5309L28.7935 13.7694ZM33.9013 12.5309L35.9949 11.2925L38.0987 12.5309L35.9949 13.7694L33.9013 12.5309Z" fill="white"/>
<path d="M30.3064 21.354V18.8771L32.4 20.1155V22.5809L30.3064 21.354ZM33.9013 25.2335L35.9949 26.472L38.0987 25.2335V27.6989L35.9949 28.9373L33.9013 27.6989V25.2335ZM41.1013 12.5309L43.1948 11.2925L45.2987 12.5309V14.9963L43.1948 16.2348V13.7694L41.1013 12.5309ZM43.1948 22.2309L43.2064 18.0002L45.3 16.7617V23.4796L39.6013 26.8219V24.345L43.1948 22.2309Z" fill="white"/>
<path d="M41.6937 21.3538L39.6001 22.5808V20.1154L41.6937 18.877V21.3538Z" fill="white"/>
<path d="M41.6936 14.6463L41.7051 17.1232L38.1 19.2386V23.4796L36.0064 24.7066L33.9128 23.4796V19.2386L30.3077 17.1232V14.6463L32.4103 13.4079L35.9936 15.5335L39.5987 13.4079L41.7026 14.6463H41.6936ZM30.3064 10.4168L35.9949 7.06299L41.6936 10.4168L39.6 11.6553L35.9949 9.52965L32.4 11.6553L30.3064 10.4168Z" fill="white"/>
</g>
</g>
<g clip-path="url(#clip1_51_29955)">
<mask id="mask1_51_29955" style="mask-type:luminance" maskUnits="userSpaceOnUse" x="0" y="2" width="32" height="32">
<path d="M32 2H0V34H32V2Z" fill="white"/>
</mask>
<g mask="url(#mask1_51_29955)">
<path d="M15.9292 30.602C22.8746 30.602 28.5049 24.8966 28.5049 17.8586C28.5049 10.8206 22.8746 5.11523 15.9292 5.11523C8.98384 5.11523 3.35352 10.8206 3.35352 17.8586C3.35352 24.8966 8.98384 30.602 15.9292 30.602Z" fill="#F0B90B"/>
<path d="M31.8583 17.8594C31.8583 19.9791 31.4463 22.0781 30.6459 24.0366C29.8453 25.995 28.672 27.7744 27.1928 29.2733C25.7137 30.7722 23.9577 31.9611 22.0251 32.7722C20.0924 33.5835 18.0211 34.001 15.9292 34.001C13.8373 34.001 11.766 33.5835 9.83337 32.7722C7.90074 31.9611 6.14472 30.7722 4.66556 29.2733C3.1864 27.7744 2.01305 25.995 1.21254 24.0366C0.412021 22.0781 -1.82876e-07 19.9791 0 17.8594H3.81783C3.81783 19.4711 4.13109 21.067 4.73975 22.556C5.3484 24.0449 6.24053 25.3979 7.36516 26.5375C8.48981 27.6773 9.82497 28.5812 11.2944 29.198C12.7638 29.8147 14.3387 30.1322 15.9292 30.1322C17.5197 30.1322 19.0946 29.8147 20.564 29.198C22.0335 28.5812 23.3686 27.6773 24.4933 26.5375C25.6179 25.3979 26.5101 24.0449 27.1187 22.556C27.7274 21.067 28.0406 19.4711 28.0406 17.8594H31.8583Z" fill="#AC6AFF"/>
<path d="M28.5049 17.8594C28.5049 19.5329 28.1797 21.19 27.5477 22.736C26.9157 24.2821 25.9894 25.6869 24.8216 26.8703C23.6538 28.0537 22.2675 28.9923 20.7417 29.6328C19.216 30.2732 17.5807 30.6028 15.9292 30.6028C14.2777 30.6028 12.6424 30.2732 11.1167 29.6328C9.59095 28.9923 8.20461 28.0537 7.03684 26.8703C5.86909 25.6869 4.94276 24.2821 4.31078 22.736C3.6788 21.19 3.35352 19.5329 3.35352 17.8594H15.9292H28.5049Z" fill="#070B09"/>
<path d="M10.3086 18.0748L10.3177 21.4445L13.1432 23.1293V25.102L8.6641 22.44V17.0895L10.3086 18.0748ZM10.3086 14.7052V16.6688L8.66309 15.6824V13.7188L10.3086 12.7324L11.9622 13.7188L10.3086 14.7052ZM14.3231 13.7188L15.9687 12.7324L17.6222 13.7188L15.9687 14.7052L14.3231 13.7188Z" fill="white"/>
<path d="M11.498 20.746V18.7733L13.1436 19.7596V21.7232L11.498 20.746ZM14.3235 23.8358L15.9691 24.8223L17.6226 23.8358V25.7994L15.9691 26.7858L14.3235 25.7994V23.8358ZM19.9826 13.7188L21.6281 12.7324L23.2816 13.7188V15.6824L21.6281 16.6688V14.7052L19.9826 13.7188ZM21.6281 21.4445L21.6372 18.0748L23.2826 17.0884V22.439L18.8036 25.1011V23.1283L21.6281 21.4445Z" fill="white"/>
<path d="M20.4478 20.7442L18.8022 21.7214V19.7579L20.4478 18.7715V20.7442Z" fill="white"/>
<path d="M20.4482 15.4031L20.4572 17.3759L17.6237 19.0607V22.4385L15.9781 23.4157L14.3326 22.4385V19.0607L11.4991 17.3759V15.4031L13.1516 14.4167L15.9681 16.1097L18.8016 14.4167L20.4552 15.4031H20.4482ZM11.498 12.0345L15.9691 9.36328L20.4482 12.0345L18.8026 13.0209L15.9691 11.3279L13.1436 13.0209L11.498 12.0345Z" fill="white"/>
</g>
</g>
<defs>
<clipPath id="clip0_51_29955">
<rect width="32" height="32" fill="white" transform="translate(20 2)"/>
</clipPath>
<clipPath id="clip1_51_29955">
<rect width="32" height="32" fill="white" transform="translate(0 2)"/>
</clipPath>
</defs>
</svg>
