<svg width="28" height="28" viewBox="0 0 28 28" fill="none" xmlns="http://www.w3.org/2000/svg">
<g clip-path="url(#clip0_51_29986)">
<path d="M14 28C21.732 28 28 21.732 28 14C28 6.26801 21.732 0 14 0C6.26801 0 0 6.26801 0 14C0 21.732 6.26801 28 14 28Z" fill="white"/>
<path fillRule="evenodd" clip-rule="evenodd" d="M13.9926 23.625C11.0242 23.6229 8.6332 22.9439 6.96256 21.7244C5.27189 20.4902 4.375 18.7388 4.375 16.757C4.375 14.8474 5.26993 13.4705 6.28253 12.5398C7.0761 11.8104 7.95182 11.3433 8.56159 11.0746C8.4237 10.6712 8.25166 10.1431 8.09774 9.59761C7.89179 8.86778 7.68974 8.01138 7.68974 7.38384C7.68974 6.64106 7.85963 5.8951 8.3177 5.31547C8.80163 4.70307 9.53024 4.375 10.4067 4.375C11.0918 4.375 11.6733 4.61722 12.1287 5.03507C12.5639 5.43448 12.8535 5.9649 13.0535 6.51784C13.405 7.48945 13.5418 8.71011 13.5802 9.92827H14.4197C14.4581 8.71011 14.5949 7.48945 14.9465 6.51784C15.1464 5.9649 15.4361 5.43448 15.8714 5.03507C16.3265 4.61722 16.9082 4.375 17.5932 4.375C18.4697 4.375 19.1983 4.70307 19.6822 5.31547C20.1403 5.8951 20.3101 6.64106 20.3101 7.38384C20.3101 8.01138 20.1082 8.86778 19.9021 9.59761C19.7483 10.1431 19.5762 10.6712 19.4383 11.0746C20.0481 11.3433 20.9239 11.8104 21.7174 12.5398C22.73 13.4705 23.625 14.8474 23.625 16.757C23.625 18.7388 22.7281 20.4902 21.0374 21.7244C19.3666 22.9439 16.9756 23.6229 14.0074 23.625H13.9926Z" fill="#633001"/>
<path d="M10.407 5.08081C9.12319 5.08081 8.53227 6.00309 8.53227 7.27857C8.53227 8.2924 9.21891 10.3228 9.50066 11.1132C9.56401 11.291 9.46444 11.4858 9.28288 11.5547C8.25394 11.9454 5.21753 13.3759 5.21753 16.6518C5.21753 20.1026 8.3032 22.7046 13.9934 22.7087C13.9957 22.7087 13.998 22.7086 14.0003 22.7086C14.0024 22.7086 14.0047 22.7087 14.007 22.7087C19.6973 22.7046 22.7829 20.1026 22.7829 16.6518C22.7829 13.3759 19.7466 11.9454 18.7176 11.5547C18.5361 11.4858 18.4364 11.291 18.4999 11.1132C18.7815 10.3228 19.4682 8.2924 19.4682 7.27857C19.4682 6.00309 18.8773 5.08081 17.5935 5.08081C15.7455 5.08081 15.2849 7.60155 15.2519 10.307C15.2498 10.4876 15.0982 10.6341 14.9106 10.6341H13.0898C12.9023 10.6341 12.7506 10.4876 12.7484 10.307C12.7157 7.60155 12.255 5.08081 10.407 5.08081Z" fill="#D1884F"/>
<path d="M14.007 21.6041C9.82616 21.6041 5.22476 19.4489 5.21756 16.6592C5.21754 16.6635 5.21753 16.6678 5.21753 16.6721C5.21753 20.1258 8.30812 22.7291 14.007 22.7291C19.706 22.7291 22.7965 20.1258 22.7965 16.6721C22.7965 16.6678 22.7965 16.6635 22.7965 16.6592C22.7893 19.4489 18.1879 21.6041 14.007 21.6041Z" fill="#FEDC90"/>
<path d="M11.6836 15.8016C11.6836 16.7435 11.2213 17.2341 10.6511 17.2341C10.0809 17.2341 9.61865 16.7435 9.61865 15.8016C9.61865 14.8597 10.0809 14.3691 10.6511 14.3691C11.2213 14.3691 11.6836 14.8597 11.6836 15.8016Z" fill="#633001"/>
<path d="M18.3947 15.8016C18.3947 16.7435 17.9326 17.2341 17.3623 17.2341C16.792 17.2341 16.3298 16.7435 16.3298 15.8016C16.3298 14.8597 16.792 14.3691 17.3623 14.3691C17.9326 14.3691 18.3947 14.8597 18.3947 15.8016Z" fill="#633001"/>
</g>
<defs>
<clipPath id="clip0_51_29986">
<rect width="28" height="28" fill="white"/>
</clipPath>
</defs>
</svg>
